<?xml version="1.0" standalone="no"?><!DOCTYPE svg PUBLIC "-//W3C//DTD SVG 1.1//EN" "http://www.w3.org/Graphics/SVG/1.1/DTD/svg11.dtd"><svg t="1610630888764" class="icon" viewBox="0 0 1024 1024" version="1.1" xmlns="http://www.w3.org/2000/svg" p-id="33535" xmlns:xlink="http://www.w3.org/1999/xlink" width="64" height="64"><defs><style type="text/css"></style></defs><path d="M58.187 261.514l431.564 244.553a24.455 24.455 0 0 0 24.114 0l431.563-244.553c17.029-9.65 16.386-34.397-1.12-43.15L512.744 2.582a24.455 24.455 0 0 0-21.873 0L59.307 218.364c-17.506 8.753-18.148 33.5-1.12 43.15z m24.114-42.553l-1.12 43.15L512.744 46.329h-21.873L922.435 262.11l-1.12-43.15L489.75 463.513h24.114L82.3 218.961z" p-id="33536" fill="#ffffff"></path><path d="M477.352 504.93v469.864c0 18.72 20.174 30.499 36.477 21.297l460.335-259.837a24.455 24.455 0 0 0 12.434-21.297v-316.48c0-13.506-10.95-24.455-24.455-24.455-13.507 0-24.456 10.949-24.456 24.455v316.48l12.434-21.296-460.334 259.836 36.476 21.297V504.93c0-13.507-10.949-24.456-24.455-24.456-13.507 0-24.456 10.95-24.456 24.456z" p-id="33537" fill="#ffffff"></path><path d="M514.422 953.843L82.858 694.006 94.7 714.957V254.623c0-13.507-10.949-24.456-24.455-24.456-13.506 0-24.455 10.95-24.455 24.456v460.334a24.455 24.455 0 0 0 11.84 20.951l431.565 259.837c11.57 6.967 26.598 3.234 33.565-8.337 6.966-11.57 3.234-26.598-8.337-33.565z" p-id="33538" fill="#ffffff"></path><path d="M172.745 448.218L316.6 534.531c11.582 6.95 26.604 3.194 33.552-8.388 6.95-11.581 3.194-26.603-8.388-33.552L197.91 406.278c-11.582-6.949-26.604-3.193-33.553 8.388-6.949 11.582-3.193 26.604 8.388 33.552z" p-id="33539" fill="#ffffff"></path></svg>