<?xml version="1.0" standalone="no"?><!DOCTYPE svg PUBLIC "-//W3C//DTD SVG 1.1//EN" "http://www.w3.org/Graphics/SVG/1.1/DTD/svg11.dtd"><svg t="1610633442397" class="icon" viewBox="0 0 1707 1024" version="1.1" xmlns="http://www.w3.org/2000/svg" p-id="9413" xmlns:xlink="http://www.w3.org/1999/xlink" width="106.6875" height="64"><defs><style type="text/css"></style></defs><path d="M386.986667 1024c315.306667-0.170667 630.613333-0.085333 945.834666-0.085333h6.4c0.256-1.706667 0.426667-2.816 0.426667-3.84 2.56-51.2-2.048-101.717333-15.189333-151.381334a399.189333 399.189333 0 0 0-102.741334-182.698666c-75.349333-75.946667-170.154667-114.261333-277.504-127.658667a698.624 698.624 0 0 0-126.122666-3.413333 591.104 591.104 0 0 0-146.602667 25.6c-133.034667 42.325333-222.634667 126.293333-266.666667 253.013333-20.736 59.733333-27.306667 121.173333-25.088 183.808 0.170667 5.376 1.706667 6.656 7.253334 6.656zM701.354667 414.464c56.832 47.104 123.477333 64.938667 197.973333 52.053333a243.2 243.2 0 0 0 153.258667-90.112c59.221333-74.410667 72.277333-155.989333 31.146666-241.834666C1036.288 35.584 919.466667-17.92 807.594667 5.461333c-114.261333 23.893333-194.56 117.077333-194.56 234.581334 1.792 64.170667 30.122667 126.208 88.234666 174.421333z m-370.858667 470.784c23.893333-123.050667 84.138667-224.426667 194.816-296.704-6.144-2.56-11.605333-4.864-17.066667-6.997333a414.037333 414.037333 0 0 0-130.986666-25.856c-59.477333-2.56-117.845333 2.730667-174.336 21.589333-71.850667 23.978667-127.914667 66.304-163.925334 130.816-26.794667 47.872-37.546667 99.498667-38.144 153.429333v23.722667h329.642667z m16.384-388.608c96.853333 0.512 177.834667-75.605333 178.176-167.594667 0.341333-90.624-76.544-162.304-174.677333-162.645333-97.109333-0.426667-174.336 70.912-174.762667 161.28-0.426667 93.610667 75.349333 168.362667 171.264 168.96z m1030.997333 388.608H1707.434667v-23.808c-0.512-53.76-11.349333-105.472-38.144-153.344-36.010667-64.512-92.074667-106.837333-163.925334-130.816-56.490667-18.773333-114.858667-24.149333-174.336-21.589333a414.037333 414.037333 0 0 0-130.901333 25.856c-5.546667 2.133333-11.008 4.522667-17.066667 6.997333 110.592 72.192 170.752 173.653333 194.730667 296.704z m-16.384-388.608c95.914667-0.597333 171.690667-75.349333 171.264-168.96-0.426667-90.368-77.653333-161.706667-174.762666-161.28-98.133333 0.341333-175.018667 72.021333-174.677334 162.645333 0.341333 91.989333 81.322667 168.106667 178.176 167.594667z" p-id="9414" fill="#1296db"></path></svg>