<?xml version="1.0" standalone="no"?><!DOCTYPE svg PUBLIC "-//W3C//DTD SVG 1.1//EN" "http://www.w3.org/Graphics/SVG/1.1/DTD/svg11.dtd"><svg t="1610633540868" class="icon" viewBox="0 0 1595 1024" version="1.1" xmlns="http://www.w3.org/2000/svg" p-id="10369" xmlns:xlink="http://www.w3.org/1999/xlink" width="99.6875" height="64"><defs><style type="text/css"></style></defs><path d="M360.180046 1024h889.294097V1020.812566c3.187434-50.998945-1.593717-101.997889-14.343453-151.403117-17.530887-68.529832-47.811511-130.684796-95.623021-183.277457-70.123549-76.498417-159.371702-114.747625-259.775874-127.497362-39.842925-4.781151-78.092134-6.374868-117.93506-3.187434-46.217794 3.187434-92.435587 11.156019-137.059663 25.499473-124.309928 43.03036-207.183213 125.903645-248.619855 253.401006-19.124604 58.96753-25.499472 121.122493-23.905756 183.277457 1.593717 4.781151 3.187434 6.374868 7.968585 6.374868zM653.423978 415.200098c52.592662 47.811511 114.747625 65.342398 184.871174 52.592662 58.96753-11.156019 106.77904-41.436643 143.434532-90.84187 55.780096-74.9047 66.936115-156.184268 28.686906-242.244987-44.624077-98.810455-152.996834-152.996834-258.182157-129.091079C645.455393 29.52058 570.550693 121.956167 570.550693 239.891226c3.187434 65.342398 28.686906 127.497362 82.873285 175.308872zM307.587385 885.346619c22.312038-122.716211 78.092134-224.7141 181.68374-296.431365-6.374868-3.187434-11.156019-4.781151-15.93717-6.374868-39.842925-15.93717-79.685851-23.905755-122.716211-25.499473-55.780096-3.187434-109.966474 3.187434-162.559136 22.312039-66.936115 23.905755-119.528776 66.936115-152.996834 130.684795C11.156019 756.255541 0 808.848202 0 861.440864v23.905755h307.587385z m15.93717-388.866953c90.84187 0 165.74657-74.9047 165.74657-167.340287 0-90.84187-71.717266-162.559136-162.559136-162.559136-90.84187 0-162.559136 70.123549-162.559136 160.965419-1.593717 94.029304 70.123549 168.934004 159.371702 168.934004z m962.60508 388.866953H1593.71702V861.440864c0-54.186379-11.156019-105.185323-35.061775-152.996834-33.468057-63.748681-86.060719-106.77904-152.996834-130.684796-52.592662-19.124604-106.77904-23.905755-162.559136-22.312038-41.436643 1.593717-82.873285 9.562302-122.71621 25.499473-4.781151 1.593717-9.562302 4.781151-15.93717 6.374868 103.591606 73.310983 159.371702 175.308872 181.68374 298.025082z m-15.93717-388.866953c89.248153 0 160.965419-74.9047 159.371702-168.934004 0-90.84187-73.310983-160.965419-162.559136-160.965419-90.84187 0-164.152853 71.717266-162.559136 162.559136 0 92.435587 74.9047 168.934004 165.74657 167.340287z" p-id="10370" fill="#ffffff"></path></svg>