<?xml version="1.0" standalone="no"?><!DOCTYPE svg PUBLIC "-//W3C//DTD SVG 1.1//EN" "http://www.w3.org/Graphics/SVG/1.1/DTD/svg11.dtd"><svg t="1610621546274" class="icon" viewBox="0 0 1024 1024" version="1.1" xmlns="http://www.w3.org/2000/svg" p-id="23000" xmlns:xlink="http://www.w3.org/1999/xlink" width="64" height="64"><defs><style type="text/css"></style></defs><path d="M194.502422 993.365041l-178.464763 6.197991 91.476878-92.972876 86.987885 86.845885v-0.07zM1004.044347 531.991653A471.917373 471.917373 0 1 1 596.102888 3.862355a471.846373 471.846373 0 0 1 407.941459 528.129298" fill="#F15A24" p-id="23001"></path><path d="M656.303808 337.780911c30.990959 32.986956 0.427999 110.926853 0.428 110.926853S626.452848 558.921618 453.260078 701.765428l-32.344957-31.703958L640.772829 445.360769l4.274994-5.770993c5.841992-9.546987 10.685986-102.447864 11.255985-101.806865" fill="#999999" p-id="23002"></path><path d="M453.260078 708.604419a7.123991 7.123991 0 0 1-4.773994-1.922998l-32.343957-31.774957a7.123991 7.123991 0 0 1 0-9.689987l219.714709-224.273703 3.633995-4.915993c3.632995-8.049989 7.69399-64.902914 9.047988-83.639889s1.423998-19.449974 5.841992-21.016972a7.123991 7.123991 0 0 1 7.12399 1.779998c32.842956 34.909954 4.416994 111.283852 1.922998 117.766843-2.349997 8.263989-35.620953 116.197846-205.608727 256.476659a7.123991 7.123991 0 0 1-4.559994 1.210999z m-22.65597-38.684949l23.082969 22.65497c165.35678-137.998817 196.418739-244.579675 196.41874-245.647674v-0.711999c0-0.641999 19.449974-50.369933 10.899985-84.423888-3.917995 53.859928-6.767991 75.3759-10.400986 81.359892l-4.559994 6.197992-0.569999 0.712999z m214.443715-230.116694z" fill="#FFFFFF" p-id="23003"></path><path d="M373.467184 623.325532l282.409625-286.32762c14.247981 17.026977 17.382977 35.621953 13.250982 61.482919-2.778996 18.095976-34.054955 54.287928-34.054954 54.287928l-213.729717 217.364711" fill="#666666" p-id="23004"></path><path d="M420.915121 674.336464a4.274994 4.274994 0 0 1-3.063996-7.12399l213.731716-217.293712c8.690988-10.115987 31.132959-38.613949 33.269956-52.07893 3.847995-23.937968 1.139998-40.038947-9.332988-54.358928L376.53018 626.318528a4.281994 4.281994 0 1 1-6.126992-5.984992l282.409625-286.32762a4.202994 4.202994 0 0 1 3.205996-1.282998 4.274994 4.274994 0 0 1 3.134996 1.496998c14.675981 17.382977 18.736975 36.190952 14.248981 64.902914-2.920996 19.092975-33.769955 54.856927-35.051954 56.352925L423.978117 673.054466a4.274994 4.274994 0 0 1-3.062996 1.281998z" fill="#FFFFFF" p-id="23005"></path><path d="M656.303808 337.994911L373.467184 623.325532l0.569999-0.569999-70.317906-68.962909c146.405806-182.169758 241.01668-216.082713 241.01668-216.082713s61.625918-24.008968 105.511859-5.413992c3.348996 1.780998 4.844994 2.849996 6.055992 5.699992" fill="#FF931E" p-id="23006"></path><path d="M373.467184 630.165523a7.123991 7.123991 0 0 1-6.411991-4.559994l-68.03791-67.110911a7.123991 7.123991 0 0 1-0.498999-9.119988c145.764806-181.385759 239.948681-216.437713 243.866676-218.07571 2.422997-0.926999 64.546914-24.721967 110.499853-5.272993a17.809976 17.809976 0 0 1 9.688987 9.261988 7.123991 7.123991 0 0 1-1.424998 7.47999l-281.769626 284.547622-0.354999 0.427999-0.57 0.57a7.123991 7.123991 0 0 1-4.986993 1.851997zM312.980264 553.150625l60.912919 60.058921 272.649638-275.071635c-40.394946-16.741978-98.743869 5.699992-99.384868 5.912992s-93.399876 35.407953-234.177689 209.099722z" fill="#FFFFFF" p-id="23007"></path><path d="M453.260078 701.765428c-67.46791 55.569926-153.815796 142.91481-271.22464 203.756729l26.359965 111.353852L97.75455 907.873154l275.997634-284.974621" fill="#999999" p-id="23008"></path><path d="M208.395403 1024a7.123991 7.123991 0 0 1-4.772993-1.994997L92.980557 913.002147a7.123991 7.123991 0 0 1 0-9.617987L368.97819 618.410539a7.123991 7.123991 0 0 1 9.831987 9.474987L107.585537 907.873154l88.555882 87.629884-20.731972-88.627882a7.123991 7.123991 0 0 1 3.490995-7.62299c90.62188-47.019938 163.859782-110.711853 222.137705-161.864785 16.884978-14.74798 32.914956-28.497962 47.946937-41.107946a7.123991 7.123991 0 0 1 8.762988 10.757986c-14.88998 12.253984-30.776959 26.145965-47.589937 40.893946-58.135923 50.795933-130.162827 113.989849-220.072707 161.223786l24.935966 106.437858a7.123991 7.123991 0 0 1-6.625991 8.406989z" fill="#FFFFFF" p-id="23009"></path><path d="M305.643274 554.647623l68.535909 68.25091-158.37479 34.339954 88.342883-103.802862 1.495998 1.211998z" fill="#F15A24" p-id="23010"></path><path d="M215.520394 664.006478a7.123991 7.123991 0 0 1-5.200993-11.256985l88.341882-103.801862a7.123991 7.123991 0 0 1 9.474988-0.854999l1.495998 1.210998 0.498999 0.499 68.892909 68.108909a7.123991 7.123991 0 0 1-3.348996 11.540985L217.300391 663.863478z m89.124881-100.738866l-70.530906 83.140889L360.500201 619.051538z" fill="#FFFFFF" p-id="23011"></path><path d="M629.302844 255.211021a110.569853 110.569853 0 1 0 122.110838-97.67587 110.569853 110.569853 0 0 0-122.110838 97.67487" fill="#999999" p-id="23012"></path><path d="M739.302698 384.802849a117.409844 117.409844 0 0 1-116.767845-130.233827 117.409844 117.409844 0 1 1 116.767845 130.375827z m-103.445862-128.879829a103.729862 103.729862 0 1 0 114.559847-91.619878 103.872862 103.872862 0 0 0-114.559847 91.619878z" fill="#FFFFFF" p-id="23013"></path><path d="M833.201573 328.519924c20.375973-29.77996 19.306974-74.377901 15.24598-87.557884-5.057993-16.172979-16.242978-42.746943-35.620953-56.139925l-103.873862 95.465873s79.649894 85.491886 81.787892 85.919886a105.08386 105.08386 0 0 0 42.745943-37.61695" fill="#666666" p-id="23014"></path><path d="M790.24163 372.975865c-3.347996-0.426999-4.629994-0.640999-85.989885-88.056883a7.123991 7.123991 0 0 1 0.354999-9.689988l103.659863-95.465873a7.123991 7.123991 0 0 1 8.549988-0.569999c22.93997 16.029979 34.551954 47.091937 38.469949 59.701921 4.417994 14.249981 5.984992 61.198919-16.099979 93.471876-18.879975 27.072964-43.387942 40.609946-48.944935 40.609946z m-71.599904-92.616877c25.861966 27.713963 62.623917 66.826911 73.309902 77.441897a107.577857 107.577857 0 0 0 35.621953-33.412956c18.949975-27.642963 17.952976-70.174907 14.248981-81.716891-3.205996-10.400986-12.253984-34.837954-28.995962-49.228935z m114.630847 47.875936z m-23.580968-24.436967a7.123991 7.123991 0 0 1-7.124991-7.123991l2.707996-43.529942a7.123991 7.123991 0 0 1 13.108983-2.136997c0.497999 1.139998 11.184985 28.069963-3.277996 49.869933a7.123991 7.123991 0 0 1-5.484992 3.205996z" fill="#FFFFFF" p-id="23015"></path><path d="M423.408118 670.13347l-114.416848 20.374973 69.034908-71.812905" fill="#666666" p-id="23016"></path><path d="M308.99127 697.276434a7.123991 7.123991 0 0 1-4.915994-11.540985l69.034908-71.741904a7.123991 7.123991 0 1 1 9.831987 9.474987l-54.500927 56.638925 93.684875-16.742978a7.123991 7.123991 0 0 1 2.421997 13.464982l-114.345848 20.375973z" fill="#FFFFFF" p-id="23017"></path><path d="M453.758077 698.844432a7.123991 7.123991 0 0 1-4.701993-1.852998l-145.407807-136.929818a7.123991 7.123991 0 1 1 9.332987-9.973987l145.479807 136.929819a7.123991 7.123991 0 0 1-4.702994 11.826984z" fill="#FFFFFF" p-id="23018"></path></svg>